<mxfile host="app.diagrams.net" modified="2020-11-16T08:08:24.007Z" agent="5.0 (Windows NT 10.0; Win64; x64) AppleWebKit/537.36 (KHTML, like Gecko) Chrome/86.0.4240.193 Safari/537.36" etag="ZuZm_nXjJd2PoNBNScjA" version="13.9.9" type="github">
  <diagram id="C5RBs43oDa-KdzZeNtuy" name="Page-1">
    <mxGraphModel dx="1108" dy="450" grid="1" gridSize="10" guides="1" tooltips="1" connect="1" arrows="1" fold="1" page="1" pageScale="1" pageWidth="827" pageHeight="1169" math="0" shadow="0">
      <root>
        <mxCell id="WIyWlLk6GJQsqaUBKTNV-0" />
        <mxCell id="WIyWlLk6GJQsqaUBKTNV-1" parent="WIyWlLk6GJQsqaUBKTNV-0" />
        <mxCell id="g4GlEAeFMui2EB-R9e0u-0" style="edgeStyle=orthogonalEdgeStyle;rounded=0;orthogonalLoop=1;jettySize=auto;html=1;entryX=0.5;entryY=0;entryDx=0;entryDy=0;" edge="1" parent="WIyWlLk6GJQsqaUBKTNV-1" source="g4GlEAeFMui2EB-R9e0u-1" target="g4GlEAeFMui2EB-R9e0u-8">
          <mxGeometry relative="1" as="geometry" />
        </mxCell>
        <mxCell id="g4GlEAeFMui2EB-R9e0u-1" value="Start" style="rounded=1;whiteSpace=wrap;html=1;fontSize=12;glass=0;strokeWidth=1;shadow=0;" vertex="1" parent="WIyWlLk6GJQsqaUBKTNV-1">
          <mxGeometry x="40" y="40" width="120" height="40" as="geometry" />
        </mxCell>
        <mxCell id="g4GlEAeFMui2EB-R9e0u-2" value="Ja" style="edgeStyle=orthogonalEdgeStyle;rounded=0;orthogonalLoop=1;jettySize=auto;html=1;entryX=0;entryY=0.5;entryDx=0;entryDy=0;" edge="1" parent="WIyWlLk6GJQsqaUBKTNV-1" source="g4GlEAeFMui2EB-R9e0u-21" target="g4GlEAeFMui2EB-R9e0u-10">
          <mxGeometry y="10" relative="1" as="geometry">
            <mxPoint as="offset" />
          </mxGeometry>
        </mxCell>
        <mxCell id="g4GlEAeFMui2EB-R9e0u-3" value="Nej" style="edgeStyle=orthogonalEdgeStyle;rounded=0;orthogonalLoop=1;jettySize=auto;html=1;entryX=0.5;entryY=0;entryDx=0;entryDy=0;" edge="1" parent="WIyWlLk6GJQsqaUBKTNV-1" source="g4GlEAeFMui2EB-R9e0u-21" target="g4GlEAeFMui2EB-R9e0u-13">
          <mxGeometry x="0.1209" y="10" relative="1" as="geometry">
            <mxPoint as="offset" />
          </mxGeometry>
        </mxCell>
        <mxCell id="g4GlEAeFMui2EB-R9e0u-4" value="Inmatning:&lt;br&gt;Heltalsvariabel" style="rounded=0;whiteSpace=wrap;html=1;" vertex="1" parent="WIyWlLk6GJQsqaUBKTNV-1">
          <mxGeometry x="40" y="220" width="120" height="40" as="geometry" />
        </mxCell>
        <mxCell id="g4GlEAeFMui2EB-R9e0u-5" style="edgeStyle=orthogonalEdgeStyle;rounded=0;orthogonalLoop=1;jettySize=auto;html=1;" edge="1" parent="WIyWlLk6GJQsqaUBKTNV-1" source="g4GlEAeFMui2EB-R9e0u-6" target="g4GlEAeFMui2EB-R9e0u-4">
          <mxGeometry relative="1" as="geometry" />
        </mxCell>
        <mxCell id="g4GlEAeFMui2EB-R9e0u-6" value="Utmatning:&lt;br&gt;&quot;Gissa talet&quot;" style="rounded=0;whiteSpace=wrap;html=1;" vertex="1" parent="WIyWlLk6GJQsqaUBKTNV-1">
          <mxGeometry x="40" y="160" width="120" height="40" as="geometry" />
        </mxCell>
        <mxCell id="g4GlEAeFMui2EB-R9e0u-7" style="edgeStyle=orthogonalEdgeStyle;rounded=0;orthogonalLoop=1;jettySize=auto;html=1;" edge="1" parent="WIyWlLk6GJQsqaUBKTNV-1" source="g4GlEAeFMui2EB-R9e0u-8" target="g4GlEAeFMui2EB-R9e0u-6">
          <mxGeometry relative="1" as="geometry" />
        </mxCell>
        <mxCell id="g4GlEAeFMui2EB-R9e0u-8" value="&lt;span&gt;Generera tal mellan 1 &amp;amp; 100&lt;/span&gt;" style="rounded=0;whiteSpace=wrap;html=1;" vertex="1" parent="WIyWlLk6GJQsqaUBKTNV-1">
          <mxGeometry x="40" y="100" width="120" height="40" as="geometry" />
        </mxCell>
        <mxCell id="g4GlEAeFMui2EB-R9e0u-9" style="edgeStyle=orthogonalEdgeStyle;rounded=0;orthogonalLoop=1;jettySize=auto;html=1;entryX=1;entryY=0.5;entryDx=0;entryDy=0;" edge="1" parent="WIyWlLk6GJQsqaUBKTNV-1" source="g4GlEAeFMui2EB-R9e0u-10" target="g4GlEAeFMui2EB-R9e0u-4">
          <mxGeometry relative="1" as="geometry">
            <mxPoint x="160" y="330" as="targetPoint" />
            <Array as="points">
              <mxPoint x="270" y="240" />
            </Array>
          </mxGeometry>
        </mxCell>
        <mxCell id="g4GlEAeFMui2EB-R9e0u-10" value="Utmatning:&lt;br&gt;&quot;För stort, gissa igen&quot;" style="rounded=0;whiteSpace=wrap;html=1;" vertex="1" parent="WIyWlLk6GJQsqaUBKTNV-1">
          <mxGeometry x="210" y="300" width="120" height="60" as="geometry" />
        </mxCell>
        <mxCell id="g4GlEAeFMui2EB-R9e0u-11" value="Ja" style="edgeStyle=orthogonalEdgeStyle;rounded=0;orthogonalLoop=1;jettySize=auto;html=1;entryX=0;entryY=0.5;entryDx=0;entryDy=0;" edge="1" parent="WIyWlLk6GJQsqaUBKTNV-1" source="g4GlEAeFMui2EB-R9e0u-13" target="g4GlEAeFMui2EB-R9e0u-15">
          <mxGeometry y="15" relative="1" as="geometry">
            <mxPoint as="offset" />
          </mxGeometry>
        </mxCell>
        <mxCell id="g4GlEAeFMui2EB-R9e0u-12" value="Nej" style="edgeStyle=orthogonalEdgeStyle;rounded=0;orthogonalLoop=1;jettySize=auto;html=1;entryX=0.5;entryY=0;entryDx=0;entryDy=0;" edge="1" parent="WIyWlLk6GJQsqaUBKTNV-1" source="g4GlEAeFMui2EB-R9e0u-13" target="g4GlEAeFMui2EB-R9e0u-17">
          <mxGeometry x="0.1111" y="10" relative="1" as="geometry">
            <mxPoint as="offset" />
          </mxGeometry>
        </mxCell>
        <mxCell id="g4GlEAeFMui2EB-R9e0u-13" value="Ät talet mindre än genererade talet" style="rhombus;whiteSpace=wrap;html=1;" vertex="1" parent="WIyWlLk6GJQsqaUBKTNV-1">
          <mxGeometry x="50" y="410" width="100" height="80" as="geometry" />
        </mxCell>
        <mxCell id="g4GlEAeFMui2EB-R9e0u-14" style="edgeStyle=orthogonalEdgeStyle;rounded=0;orthogonalLoop=1;jettySize=auto;html=1;entryX=1;entryY=0.5;entryDx=0;entryDy=0;" edge="1" parent="WIyWlLk6GJQsqaUBKTNV-1" source="g4GlEAeFMui2EB-R9e0u-15" target="g4GlEAeFMui2EB-R9e0u-4">
          <mxGeometry relative="1" as="geometry">
            <Array as="points">
              <mxPoint x="390" y="450" />
              <mxPoint x="390" y="240" />
            </Array>
          </mxGeometry>
        </mxCell>
        <mxCell id="g4GlEAeFMui2EB-R9e0u-15" value="Utmatning:&lt;br&gt;&quot;För litet, gissa igen&quot;" style="rounded=0;whiteSpace=wrap;html=1;" vertex="1" parent="WIyWlLk6GJQsqaUBKTNV-1">
          <mxGeometry x="210" y="420" width="120" height="60" as="geometry" />
        </mxCell>
        <mxCell id="g4GlEAeFMui2EB-R9e0u-16" style="edgeStyle=orthogonalEdgeStyle;rounded=0;orthogonalLoop=1;jettySize=auto;html=1;entryX=0.5;entryY=0;entryDx=0;entryDy=0;" edge="1" parent="WIyWlLk6GJQsqaUBKTNV-1" source="g4GlEAeFMui2EB-R9e0u-17" target="g4GlEAeFMui2EB-R9e0u-19">
          <mxGeometry relative="1" as="geometry" />
        </mxCell>
        <mxCell id="g4GlEAeFMui2EB-R9e0u-17" value="Utmatning:&lt;br&gt;&quot;Rätt!&quot;" style="rounded=0;whiteSpace=wrap;html=1;" vertex="1" parent="WIyWlLk6GJQsqaUBKTNV-1">
          <mxGeometry x="40" y="530" width="120" height="40" as="geometry" />
        </mxCell>
        <mxCell id="g4GlEAeFMui2EB-R9e0u-18" style="edgeStyle=orthogonalEdgeStyle;rounded=0;orthogonalLoop=1;jettySize=auto;html=1;" edge="1" parent="WIyWlLk6GJQsqaUBKTNV-1" source="g4GlEAeFMui2EB-R9e0u-19" target="g4GlEAeFMui2EB-R9e0u-20">
          <mxGeometry relative="1" as="geometry" />
        </mxCell>
        <mxCell id="g4GlEAeFMui2EB-R9e0u-19" value="Utmatning:&lt;br&gt;Antalet gissningar&amp;nbsp;" style="rounded=0;whiteSpace=wrap;html=1;" vertex="1" parent="WIyWlLk6GJQsqaUBKTNV-1">
          <mxGeometry x="40" y="600" width="120" height="40" as="geometry" />
        </mxCell>
        <mxCell id="g4GlEAeFMui2EB-R9e0u-20" value="Stop" style="rounded=1;whiteSpace=wrap;html=1;" vertex="1" parent="WIyWlLk6GJQsqaUBKTNV-1">
          <mxGeometry x="40" y="670" width="120" height="40" as="geometry" />
        </mxCell>
        <mxCell id="g4GlEAeFMui2EB-R9e0u-21" value="&lt;font style=&quot;font-size: 12px&quot;&gt;Är inmatat tal större än genererade talet&lt;/font&gt;" style="rhombus;whiteSpace=wrap;html=1;" vertex="1" parent="WIyWlLk6GJQsqaUBKTNV-1">
          <mxGeometry x="50" y="290" width="100" height="80" as="geometry" />
        </mxCell>
        <mxCell id="g4GlEAeFMui2EB-R9e0u-22" style="edgeStyle=orthogonalEdgeStyle;rounded=0;orthogonalLoop=1;jettySize=auto;html=1;" edge="1" parent="WIyWlLk6GJQsqaUBKTNV-1" source="g4GlEAeFMui2EB-R9e0u-4" target="g4GlEAeFMui2EB-R9e0u-21">
          <mxGeometry relative="1" as="geometry">
            <mxPoint x="100" y="390" as="targetPoint" />
            <mxPoint x="100" y="280" as="sourcePoint" />
          </mxGeometry>
        </mxCell>
      </root>
    </mxGraphModel>
  </diagram>
</mxfile>
